<svg xmlns="http://www.w3.org/2000/svg" width="1200" height="630" viewBox="0 0 1200 630">
  <defs>
    <linearGradient id="bg" x1="0%" y1="0%" x2="100%" y2="100%">
      <stop offset="0%" style="stop-color:#0f172a;stop-opacity:1" />
      <stop offset="100%" style="stop-color:#1e293b;stop-opacity:1" />
    </linearGradient>
  </defs>
  <rect width="1200" height="630" fill="url(#bg)"/>
  <rect x="0" y="0" width="1200" height="6" fill="#1a56db"/>
  <text x="100" y="240" font-family="system-ui, -apple-system, sans-serif" font-size="72" font-weight="700" fill="#ffffff">E-AEGL</text>
  <text x="100" y="320" font-family="system-ui, -apple-system, sans-serif" font-size="32" font-weight="400" fill="#94a3b8">AI Decision Control Infrastructure</text>
  <text x="100" y="380" font-family="system-ui, -apple-system, sans-serif" font-size="24" font-weight="400" fill="#64748b">Policy enforcement, audit trails, and governance</text>
  <text x="100" y="420" font-family="system-ui, -apple-system, sans-serif" font-size="24" font-weight="400" fill="#64748b">for enterprise AI decisions</text>
  <rect x="100" y="480" width="200" height="44" rx="6" fill="#1a56db"/>
  <text x="200" y="508" font-family="system-ui, -apple-system, sans-serif" font-size="18" font-weight="600" fill="#ffffff" text-anchor="middle">Documentation</text>
  <g transform="translate(850, 150)">
    <rect x="0" y="0" width="250" height="50" rx="8" fill="#1a56db" opacity="0.2" stroke="#1a56db" stroke-width="1"/>
    <text x="125" y="30" font-family="monospace" font-size="14" fill="#5489f5" text-anchor="middle">Decision Interceptor &lt;2ms</text>
    <rect x="0" y="70" width="250" height="50" rx="8" fill="#1a56db" opacity="0.2" stroke="#1a56db" stroke-width="1"/>
    <text x="125" y="100" font-family="monospace" font-size="14" fill="#5489f5" text-anchor="middle">Policy Engine &lt;5ms</text>
    <rect x="0" y="140" width="250" height="50" rx="8" fill="#1a56db" opacity="0.2" stroke="#1a56db" stroke-width="1"/>
    <text x="125" y="170" font-family="monospace" font-size="14" fill="#5489f5" text-anchor="middle">Action Gate &lt;1ms</text>
    <rect x="0" y="210" width="250" height="50" rx="8" fill="#1a56db" opacity="0.2" stroke="#1a56db" stroke-width="1"/>
    <text x="125" y="240" font-family="monospace" font-size="14" fill="#5489f5" text-anchor="middle">Audit Logger &lt;2ms</text>
    <line x1="125" y1="50" x2="125" y2="70" stroke="#1a56db" stroke-width="2"/>
    <line x1="125" y1="120" x2="125" y2="140" stroke="#1a56db" stroke-width="2"/>
    <line x1="125" y1="190" x2="125" y2="210" stroke="#1a56db" stroke-width="2"/>
  </g>
</svg>
